<svg width="17" height="20" viewBox="0 0 17 20" fill="none" xmlns="http://www.w3.org/2000/svg">
<path d="M0 2C0 0.895431 0.895431 0 2 0H13H15C16.1046 0 17 0.895431 17 2V4V18C17 19.1046 16.1046 20 15 20H2C0.89543 20 0 19.1046 0 18V2Z" fill="#BFBFBF"/>
<path d="M0 2C0 0.895431 0.895431 0 2 0H10.9384C11.9856 0 12.754 0.984099 12.5 2C12.246 3.0159 13.0144 4 14.0616 4H15C16.1046 4 17 4.89543 17 6V18C17 19.1046 16.1046 20 15 20H2C0.89543 20 0 19.1046 0 18V2Z" fill="#D9D9D9"/>
<line x1="3" y1="10.5" x2="14" y2="10.5" stroke="white"/>
<line x1="3" y1="8.5" x2="14" y2="8.5" stroke="white"/>
<line x1="3" y1="6.5" x2="14" y2="6.5" stroke="white"/>
<path d="M4.44218 18.1791V13.8556H4.90892V14.3551H4.96624C5.00173 14.3005 5.05086 14.2309 5.11364 14.1463C5.17778 14.0603 5.26922 13.9839 5.38795 13.917C5.50805 13.8488 5.67045 13.8147 5.87517 13.8147C6.13993 13.8147 6.3733 13.8809 6.57528 14.0132C6.77727 14.1456 6.9349 14.3333 7.04817 14.5762C7.16144 14.8191 7.21808 15.1057 7.21808 15.436C7.21808 15.769 7.16144 16.0576 7.04817 16.3019C6.9349 16.5449 6.77795 16.7332 6.57733 16.8669C6.37671 16.9993 6.14539 17.0655 5.88336 17.0655C5.68137 17.0655 5.51965 17.0321 5.39819 16.9652C5.27672 16.897 5.18324 16.8199 5.11773 16.7339C5.05222 16.6465 5.00173 16.5742 4.96624 16.5169H4.9253V18.1791H4.44218ZM4.91711 15.4278C4.91711 15.6653 4.95191 15.8748 5.02152 16.0563C5.09112 16.2364 5.19279 16.3777 5.32654 16.48C5.46028 16.581 5.62405 16.6315 5.81785 16.6315C6.01983 16.6315 6.18838 16.5783 6.32349 16.4718C6.45996 16.364 6.56232 16.2194 6.63056 16.0379C6.70016 15.855 6.73496 15.6516 6.73496 15.4278C6.73496 15.2067 6.70084 15.0075 6.6326 14.83C6.56573 14.6513 6.46406 14.51 6.32758 14.4063C6.19247 14.3012 6.02256 14.2487 5.81785 14.2487C5.62132 14.2487 5.45619 14.2985 5.32244 14.3981C5.1887 14.4964 5.08771 14.6342 5.01947 14.8116C4.95123 14.9877 4.91711 15.1931 4.91711 15.4278ZM9.02709 17.0655C8.76505 17.0655 8.53373 16.9993 8.33311 16.8669C8.13249 16.7332 7.97555 16.5449 7.86227 16.3019C7.749 16.0576 7.69236 15.769 7.69236 15.436C7.69236 15.1057 7.749 14.8191 7.86227 14.5762C7.97555 14.3333 8.13317 14.1456 8.33516 14.0132C8.53714 13.8809 8.77051 13.8147 9.03527 13.8147C9.23999 13.8147 9.40171 13.8488 9.52044 13.917C9.64054 13.9839 9.73198 14.0603 9.79476 14.1463C9.8589 14.2309 9.90871 14.3005 9.9442 14.3551H9.98514V12.8075H10.4683V17H10.0015V16.5169H9.9442C9.90871 16.5742 9.85822 16.6465 9.79271 16.7339C9.7272 16.8199 9.63372 16.897 9.51225 16.9652C9.39079 17.0321 9.22907 17.0655 9.02709 17.0655ZM9.09259 16.6315C9.28639 16.6315 9.45016 16.581 9.5839 16.48C9.71765 16.3777 9.81932 16.2364 9.88893 16.0563C9.95853 15.8748 9.99333 15.6653 9.99333 15.4278C9.99333 15.1931 9.95921 14.9877 9.89097 14.8116C9.82273 14.6342 9.72174 14.4964 9.588 14.3981C9.45425 14.2985 9.28912 14.2487 9.09259 14.2487C8.88788 14.2487 8.71729 14.3012 8.58081 14.4063C8.4457 14.51 8.34403 14.6513 8.27579 14.83C8.20892 15.0075 8.17548 15.2067 8.17548 15.4278C8.17548 15.6516 8.2096 15.855 8.27784 16.0379C8.34744 16.2194 8.4498 16.364 8.58491 16.4718C8.72138 16.5783 8.89061 16.6315 9.09259 16.6315ZM12.7051 13.8556V14.265H11.0101V13.8556H12.7051ZM11.5178 17V13.4216C11.5178 13.2415 11.5601 13.0914 11.6447 12.9713C11.7293 12.8512 11.8392 12.7611 11.9743 12.701C12.1094 12.641 12.252 12.611 12.4021 12.611C12.5209 12.611 12.6178 12.6205 12.6928 12.6396C12.7679 12.6587 12.8238 12.6765 12.8607 12.6928L12.7215 13.1105C12.6969 13.1023 12.6628 13.092 12.6191 13.0798C12.5768 13.0675 12.5209 13.0613 12.4513 13.0613C12.2916 13.0613 12.1763 13.1016 12.1053 13.1821C12.0357 13.2626 12.0009 13.3807 12.0009 13.5363V17H11.5178Z" fill="#ADADAD"/>
</svg>
