<svg width="26" height="24" viewBox="0 0 26 24" fill="none" xmlns="http://www.w3.org/2000/svg">
<path d="M3.12891 6H22.1289V4H3.12891V6ZM23.1289 7V21H25.1289V7H23.1289ZM22.1289 22H3.12891V24H22.1289V22ZM2.12891 21V7H0.128906V21H2.12891ZM3.12891 22C2.57662 22 2.12891 21.5523 2.12891 21H0.128906C0.128906 22.6569 1.47205 24 3.12891 24V22ZM23.1289 21C23.1289 21.5523 22.6812 22 22.1289 22V24C23.7858 24 25.1289 22.6569 25.1289 21H23.1289ZM22.1289 6C22.6812 6 23.1289 6.44771 23.1289 7H25.1289C25.1289 5.34315 23.7858 4 22.1289 4V6ZM3.12891 4C1.47205 4 0.128906 5.34315 0.128906 7H2.12891C2.12891 6.44772 2.57662 6 3.12891 6V4Z" fill="black"/>
<path d="M18.1289 9V2C18.1289 1.44772 17.6812 1 17.1289 1H8.12891C7.57662 1 7.12891 1.44772 7.12891 2V9" stroke="black" stroke-width="2" stroke-linejoin="round"/>
</svg>
