<svg width="25" height="23" viewBox="0 0 25 23" fill="none" xmlns="http://www.w3.org/2000/svg">
<path d="M3 4.7016H22V4.2016H3V4.7016ZM23.75 6.4516V20.4516H24.25V6.4516H23.75ZM22 22.2016H3V22.7016H22V22.2016ZM1.25 20.4516V6.4516H0.75V20.4516H1.25ZM3 22.2016C2.0335 22.2016 1.25 21.4181 1.25 20.4516H0.75C0.75 21.6942 1.75736 22.7016 3 22.7016V22.2016ZM23.75 20.4516C23.75 21.4181 22.9665 22.2016 22 22.2016V22.7016C23.2426 22.7016 24.25 21.6942 24.25 20.4516H23.75ZM22 4.7016C22.9665 4.7016 23.75 5.4851 23.75 6.4516H24.25C24.25 5.20896 23.2426 4.2016 22 4.2016V4.7016ZM3 4.2016C1.75736 4.2016 0.75 5.20896 0.75 6.4516H1.25C1.25 5.4851 2.0335 4.7016 3 4.7016V4.2016Z" fill="black"/>
<path d="M18 8.4516V1.4516C18 0.899314 17.5523 0.451599 17 0.451599H8C7.44772 0.451599 7 0.899314 7 1.4516V8.4516" stroke="black" stroke-width="0.5" stroke-linejoin="round"/>
</svg>
