<svg width="25" height="24" viewBox="0 0 25 24" fill="none" xmlns="http://www.w3.org/2000/svg">
<path d="M3 5.2016H22V4.7016H3V5.2016ZM23.75 6.9516V20.9516H24.25V6.9516H23.75ZM22 22.7016H3V23.2016H22V22.7016ZM1.25 20.9516V6.9516H0.75V20.9516H1.25ZM3 22.7016C2.0335 22.7016 1.25 21.9181 1.25 20.9516H0.75C0.75 22.1942 1.75736 23.2016 3 23.2016V22.7016ZM23.75 20.9516C23.75 21.9181 22.9665 22.7016 22 22.7016V23.2016C23.2426 23.2016 24.25 22.1942 24.25 20.9516H23.75ZM22 5.2016C22.9665 5.2016 23.75 5.9851 23.75 6.9516H24.25C24.25 5.70896 23.2426 4.7016 22 4.7016V5.2016ZM3 4.7016C1.75736 4.7016 0.75 5.70896 0.75 6.9516H1.25C1.25 5.9851 2.0335 5.2016 3 5.2016V4.7016Z" fill="white"/>
<path d="M18 8.9516V1.9516C18 1.39931 17.5523 0.951599 17 0.951599H8C7.44772 0.951599 7 1.39931 7 1.9516V8.9516" stroke="white" stroke-width="0.5" stroke-linejoin="round"/>
</svg>
