<svg width="20" height="20" viewBox="0 0 20 20" fill="none" xmlns="http://www.w3.org/2000/svg">
<path fill-rule="evenodd" clip-rule="evenodd" d="M6.36235 14.8817V6.78923H7.7111V14.8817H6.36235Z" fill="black"/>
<path fill-rule="evenodd" clip-rule="evenodd" d="M11.7574 14.8817V6.78923H13.1061V14.8817H11.7574Z" fill="black"/>
<path fill-rule="evenodd" clip-rule="evenodd" d="M4.27179 17.849H15.1967C15.9043 17.849 16.478 17.2753 16.478 16.5677V4.7661H2.99047V16.5677C2.99047 17.2753 3.56414 17.849 4.27179 17.849ZM15.1967 19.1977H4.27179C2.81924 19.1977 1.64172 18.0202 1.64172 16.5677V4.09173C1.64172 3.71928 1.94365 3.41735 2.3161 3.41735H17.1524C17.5248 3.41735 17.8267 3.71928 17.8267 4.09173V16.5677C17.8267 18.0202 16.6492 19.1977 15.1967 19.1977Z" fill="black"/>
<path fill-rule="evenodd" clip-rule="evenodd" d="M19.1755 4.09173H0.292969V2.74297H19.1755V4.09173Z" fill="black"/>
<path fill-rule="evenodd" clip-rule="evenodd" d="M11.083 1.39422H8.38548C7.64058 1.39422 7.03673 1.99808 7.03673 2.74297C7.03673 2.9299 7.07342 3.02126 7.09364 3.0597C7.11279 3.0961 7.14425 3.13727 7.21678 3.18475C7.39263 3.29986 7.76432 3.41735 8.38548 3.41735H11.083C11.7041 3.41735 12.0758 3.29986 12.2517 3.18475C12.3242 3.13727 12.3557 3.0961 12.3748 3.0597C12.395 3.02126 12.4317 2.9299 12.4317 2.74297C12.4317 1.99808 11.8279 1.39422 11.083 1.39422ZM8.38548 0.0454712H11.083C12.5728 0.0454712 13.7805 1.25318 13.7805 2.74297C13.7805 4.23276 12.5728 4.7661 11.083 4.7661H8.38548C6.89569 4.7661 5.68798 4.23276 5.68798 2.74297C5.68798 1.25318 6.89569 0.0454712 8.38548 0.0454712Z" fill="black"/>
</svg>
