<svg width="21" height="21" viewBox="0 0 21 21" fill="none" xmlns="http://www.w3.org/2000/svg">
<path d="M5.1048 11.8361L13.3132 3.84086C13.4014 3.75496 14.105 3.06966 15.2185 2.69868C16.772 2.21349 18.3555 2.61279 19.6163 3.84086C20.9062 5.06892 21.2871 6.58207 20.789 8.09522C20.4372 9.18074 19.7045 9.9227 19.6163 10.0086L10.7925 18.6032C9.2681 20.088 5.45659 22.0014 1.9387 18.6032C-1.55011 15.205 0.44336 11.4642 1.9387 10.0086L11.4079 0.756989C11.7597 0.414337 12.3169 0.414337 12.6687 0.756989C13.0205 1.09964 13.0205 1.6424 12.6687 1.98505L3.22859 11.2367C3.08225 11.3509 0.120652 14.3488 3.22859 17.3761C6.24835 20.3174 9.209 17.6904 9.53171 17.3761L18.3555 8.7522C18.3555 8.7522 18.8536 8.267 19.0882 7.5817C19.3818 6.66796 19.1764 5.86844 18.3555 5.06892C16.5966 3.35566 14.8958 4.78292 14.574 5.06892L6.36561 13.0358C6.07198 13.3218 5.86748 13.807 6.36561 14.2922C6.86374 14.7774 7.33279 14.549 7.62642 14.2922L13.3141 8.7522C13.6659 8.43787 14.2522 8.43787 14.575 8.7522C14.9267 9.09485 14.9267 9.66594 14.575 10.0086L8.88723 15.5193C8.09547 16.2622 6.48287 16.8616 5.10574 15.5193C3.69858 14.1771 4.31304 12.578 5.1048 11.8361Z" fill="black"/>
</svg>
