<svg width="24" height="22" viewBox="0 0 24 22" fill="none" xmlns="http://www.w3.org/2000/svg">
<path d="M21.0472 2.52764C19.8362 1.23942 18.2308 0.453164 16.5211 0.310898C14.8114 0.168633 13.1102 0.679738 11.7246 1.75189C10.271 0.604795 8.46169 0.0846477 6.66106 0.296192C4.86044 0.507737 3.20223 1.43526 2.02038 2.89198C0.838522 4.3487 0.220802 6.22641 0.291611 8.14699C0.362421 10.0676 1.1165 11.8884 2.402 13.2427L9.49678 20.782C10.0909 21.4023 10.891 21.75 11.7246 21.75C12.5582 21.75 13.3583 21.4023 13.9524 20.782L21.0472 13.2427C22.3812 11.8188 23.1299 9.89274 23.1299 7.88516C23.1299 5.87758 22.3812 3.95154 21.0472 2.52764ZM19.4363 11.57L12.3416 19.0972C12.2608 19.1837 12.1647 19.2523 12.0588 19.2992C11.9529 19.346 11.8393 19.3701 11.7246 19.3701C11.6099 19.3701 11.4963 19.346 11.3904 19.2992C11.2845 19.2523 11.1884 19.1837 11.1077 19.0972L4.01289 11.5336C3.11691 10.5619 2.61519 9.25662 2.61519 7.89728C2.61519 6.53794 3.11691 5.23265 4.01289 4.26095C4.92591 3.30459 6.15729 2.76833 7.44032 2.76833C8.72336 2.76833 9.95474 3.30459 10.8678 4.26095C10.974 4.37456 11.1003 4.46474 11.2395 4.52627C11.3788 4.58781 11.5281 4.61949 11.6789 4.61949C11.8297 4.61949 11.9791 4.58781 12.1183 4.52627C12.2575 4.46474 12.3839 4.37456 12.4901 4.26095C13.4031 3.30459 14.6345 2.76833 15.9175 2.76833C17.2005 2.76833 18.4319 3.30459 19.3449 4.26095C20.2532 5.21991 20.7714 6.51813 20.7885 7.87751C20.8056 9.23688 20.3202 10.5493 19.4363 11.5336V11.57Z" fill="white"/>
</svg>
