<svg width="24" height="22" viewBox="0 0 24 22" fill="none" xmlns="http://www.w3.org/2000/svg">
<path d="M21.0463 2.52764C19.8352 1.23942 18.2298 0.453164 16.5201 0.310898C14.8105 0.168633 13.1092 0.679738 11.7236 1.75189C10.27 0.604795 8.46071 0.0846477 6.66009 0.296192C4.85946 0.507737 3.20126 1.43526 2.0194 2.89198C0.837545 4.3487 0.219825 6.22641 0.290635 8.14699C0.361444 10.0676 1.11552 11.8884 2.40102 13.2427L9.49581 20.782C10.0899 21.4023 10.8901 21.75 11.7236 21.75C12.5572 21.75 13.3574 21.4023 13.9515 20.782L21.0463 13.2427C22.3802 11.8188 23.1289 9.89274 23.1289 7.88516C23.1289 5.87758 22.3802 3.95154 21.0463 2.52764ZM19.4354 11.57L12.3406 19.0972C12.2598 19.1837 12.1638 19.2523 12.0579 19.2992C11.952 19.346 11.8384 19.3701 11.7236 19.3701C11.6089 19.3701 11.4953 19.346 11.3894 19.2992C11.2835 19.2523 11.1874 19.1837 11.1067 19.0972L4.01191 11.5336C3.11593 10.5619 2.61422 9.25662 2.61422 7.89728C2.61422 6.53794 3.11593 5.23265 4.01191 4.26095C4.92493 3.30459 6.15631 2.76833 7.43935 2.76833C8.72238 2.76833 9.95376 3.30459 10.8668 4.26095C10.973 4.37456 11.0993 4.46474 11.2386 4.52627C11.3778 4.58781 11.5271 4.61949 11.6779 4.61949C11.8288 4.61949 11.9781 4.58781 12.1173 4.52627C12.2565 4.46474 12.3829 4.37456 12.4891 4.26095C13.4021 3.30459 14.6335 2.76833 15.9165 2.76833C17.1996 2.76833 18.4309 3.30459 19.344 4.26095C20.2523 5.21991 20.7705 6.51813 20.7875 7.87751C20.8046 9.23688 20.3192 10.5493 19.4354 11.5336V11.57Z" fill="black"/>
</svg>
