<svg width="15" height="19" viewBox="0 0 15 19" fill="none" xmlns="http://www.w3.org/2000/svg">
<g clip-path="url(#clip0_263_4596)">
<path fill-rule="evenodd" clip-rule="evenodd" d="M11.0741 8.30321C10.2005 10.0596 8.06852 10.7752 6.31214 9.90166C4.55575 9.02808 3.8401 6.89608 4.71368 5.13969C5.58726 3.38331 7.71927 2.66766 9.47565 3.54124C11.232 4.41482 11.9477 6.54682 11.0741 8.30321ZM6.17337 11.4308C8.54123 12.2992 11.2335 11.2647 12.3827 8.95408C13.6158 6.47497 12.6056 3.46567 10.1265 2.23263C7.64741 0.999581 4.63811 2.00971 3.40507 4.48882C2.25592 6.79926 3.05509 9.57018 5.17588 10.9346L2.43369 16.448L3.4312 16.9441L6.17337 11.4308Z" fill="#AFAFAF"/>
</g>
<defs>
<clipPath id="clip0_263_4596">
<rect width="14.6154" height="19" fill="white"/>
</clipPath>
</defs>
</svg>
