<svg width="21" height="15" viewBox="0 0 21 15" fill="none" xmlns="http://www.w3.org/2000/svg">
<path d="M13.5 15L18.5 15C19.6046 15 20.5 14.1046 20.5 13L20.5 7.9881C20.5 7.01515 19.7113 6.22642 18.7383 6.22642C17.4208 6.22642 16.5695 4.83305 17.1708 3.66073L17.6012 2.82164C18.2624 1.53237 17.3262 9.53674e-07 15.8772 9.53674e-07C15.1506 9.53674e-07 14.485 0.406647 14.1533 1.05324L11.7204 5.79666C11.5756 6.0791 11.5 6.39197 11.5 6.70941L11.5 13C11.5 14.1046 12.3954 15 13.5 15Z" fill="#3A3A3A"/>
<path d="M2.5 15L7.5 15C8.60457 15 9.5 14.1046 9.5 13L9.5 7.9881C9.5 7.01515 8.71127 6.22642 7.73831 6.22642C6.42079 6.22642 5.5695 4.83305 6.17079 3.66073L6.60116 2.82164C7.26243 1.53237 6.32621 9.53674e-07 4.87725 9.53674e-07C4.15056 9.53674e-07 3.48498 0.406647 3.15334 1.05324L0.720425 5.79666C0.575558 6.0791 0.5 6.39197 0.5 6.70941L0.5 13C0.5 14.1046 1.39543 15 2.5 15Z" fill="#3A3A3A"/>
</svg>
