<svg width="21" height="15" viewBox="0 0 21 15" fill="none" xmlns="http://www.w3.org/2000/svg">
<path d="M7.5 -6.11959e-07L2.5 -1.74846e-07C1.39543 -7.8281e-08 0.5 0.895429 0.5 2L0.500001 7.0119C0.500001 7.98485 1.28874 8.77358 2.26169 8.77358C3.57921 8.77358 4.4305 10.1669 3.82922 11.3393L3.39884 12.1784C2.73757 13.4676 3.67379 15 5.12275 15C5.84944 15 6.51502 14.5934 6.84666 13.9468L9.27958 9.20334C9.42444 8.9209 9.5 8.60802 9.5 8.29059L9.5 2C9.5 0.89543 8.60457 -7.08524e-07 7.5 -6.11959e-07Z" fill="#3A3A3A"/>
<path d="M18.5 -6.11959e-07L13.5 -1.74846e-07C12.3954 -7.8281e-08 11.5 0.895429 11.5 2L11.5 7.0119C11.5 7.98485 12.2887 8.77358 13.2617 8.77358C14.5792 8.77358 15.4305 10.1669 14.8292 11.3393L14.3988 12.1784C13.7376 13.4676 14.6738 15 16.1228 15C16.8494 15 17.515 14.5934 17.8467 13.9468L20.2796 9.20334C20.4244 8.9209 20.5 8.60802 20.5 8.29059L20.5 2C20.5 0.89543 19.6046 -7.08524e-07 18.5 -6.11959e-07Z" fill="#3A3A3A"/>
</svg>
