<svg width="15" height="22" viewBox="0 0 15 22" fill="none" xmlns="http://www.w3.org/2000/svg">
<path fill-rule="evenodd" clip-rule="evenodd" d="M4.43703 12.5128L4.53369 12.3184L5.89872 12.9973L5.80205 13.1917C8.79321 14.2588 12.1774 12.9445 13.6268 10.0303C15.1912 6.88506 13.9096 3.0672 10.7644 1.50285C7.6192 -0.061495 3.80134 1.22005 2.23699 4.36527C0.787523 7.27951 1.78131 10.7712 4.43703 12.5128ZM4.21288 12.9634C1.31047 11.0963 0.216726 7.30437 1.78931 4.1426C3.47664 0.750136 7.59462 -0.632153 10.9871 1.05517C14.3795 2.7425 15.7618 6.86048 14.0745 10.2529C12.5019 13.4147 8.81803 14.8304 5.5779 13.6423L1.82515 21.1875L0.46013 20.5085L4.21288 12.9634Z" fill="white"/>
</svg>
