<svg width="10" height="13" viewBox="0 0 10 13" fill="none" xmlns="http://www.w3.org/2000/svg">
<path fill-rule="evenodd" clip-rule="evenodd" d="M4.1417 8.29636C6.16179 9.03695 8.45849 8.1543 9.43892 6.18308C10.4909 4.06796 9.62911 1.5005 7.51399 0.448498C5.39887 -0.603507 2.83142 0.258316 1.77941 2.37343C0.798912 4.34478 1.48091 6.70907 3.29062 7.87311L0.951172 12.5767L1.80223 13L4.1417 8.29636ZM8.64967 5.79052C7.81447 7.46975 5.77612 8.15396 4.0969 7.31876C2.41767 6.48356 1.73346 4.44521 2.56866 2.76599C3.40387 1.08676 5.44221 0.402546 7.12144 1.23775C8.80066 2.07295 9.48488 4.1113 8.64967 5.79052Z" fill="black"/>
</svg>
