<svg width="15" height="22" viewBox="0 0 15 22" fill="none" xmlns="http://www.w3.org/2000/svg">
<path fill-rule="evenodd" clip-rule="evenodd" d="M4.4363 13.0128L4.53296 12.8184L5.89798 13.4973L5.80132 13.6917C8.79248 14.7588 12.1766 13.4445 13.6261 10.5303C15.1904 7.38506 13.9089 3.5672 10.7637 2.00285C7.61847 0.438505 3.80061 1.72005 2.23626 4.86527C0.786791 7.77951 1.78058 11.2712 4.4363 13.0128ZM4.21214 13.4634C1.30974 11.5963 0.215994 7.80437 1.78858 4.6426C3.4759 1.25014 7.59389 -0.132153 10.9864 1.55517C14.3788 3.2425 15.7611 7.36048 14.0738 10.7529C12.5012 13.9147 8.8173 15.3304 5.57717 14.1423L1.82442 21.6875L0.459398 21.0085L4.21214 13.4634Z" fill="black"/>
</svg>
