<svg width="16" height="22" viewBox="0 0 16 22" fill="none" xmlns="http://www.w3.org/2000/svg">
<path fill-rule="evenodd" clip-rule="evenodd" d="M13.3599 10.0156C11.9751 12.7998 8.59539 13.9342 5.81117 12.5494C3.02695 11.1646 1.89249 7.78498 3.27729 5.00076C4.66209 2.21654 8.04175 1.08208 10.826 2.46688C13.6102 3.85169 14.7447 7.23135 13.3599 10.0156ZM5.88545 14.1703C9.23484 15.3983 13.0429 13.9348 14.6685 10.6664C16.4127 7.15949 14.9838 2.90254 11.4768 1.15827C7.9699 -0.585993 3.71295 0.842944 1.96868 4.34989C0.342974 7.61847 1.47376 11.5386 4.47433 13.4686L0.595427 21.2673L2.00651 21.9692L5.88545 14.1703Z" fill="#AFAFAF"/>
</svg>
