<svg width="15" height="22" viewBox="0 0 15 22" fill="none" xmlns="http://www.w3.org/2000/svg">
<path fill-rule="evenodd" clip-rule="evenodd" d="M12.283 9.36228C11.0876 11.7658 8.17014 12.7451 5.76667 11.5496C3.3632 10.3542 2.38388 7.43674 3.57931 5.03326C4.77473 2.62979 7.69222 1.65048 10.0957 2.8459C12.4992 4.04133 13.4785 6.95881 12.283 9.36228ZM5.57717 13.6423C8.8173 14.8304 12.5012 13.4147 14.0738 10.2529C15.7611 6.86048 14.3788 2.7425 10.9864 1.05517C7.59389 -0.632153 3.4759 0.750136 1.78858 4.1426C0.215994 7.30437 1.30974 11.0963 4.21214 12.9634L0.459398 20.5085L1.82442 21.1875L5.57717 13.6423Z" fill="black"/>
</svg>
