<svg width="1210" height="198" viewBox="0 0 1210 198" fill="none" xmlns="http://www.w3.org/2000/svg">
<g clip-path="url(#clip0_147_3961)">
<path fill-rule="evenodd" clip-rule="evenodd" d="M14.6883 196.315L17.8781 189.457V6.43597L1.17472 1.39049C0.0821964 1.06133 0.956214 1.10417 1.46716 1.10417C13.5265 1.13846 98.4443 1.33562 98.4443 1.33562C129.389 1.1916 155.111 13.033 174.6 30.6516C193.584 47.8131 206.74 70.3703 206.74 99.0757C206.74 121.734 198.726 137.414 189.856 150.912C156.969 200.958 94.3818 197.101 94.3818 197.101H15.1795C14.7801 197.101 14.518 196.682 14.6883 196.315ZM842.963 1.05104V197.17H995.323V186.812C956.323 186.812 917.322 186.812 878.322 186.812V102.128H985.958V91.2593H878.151V11.3717C917.207 11.3717 956.265 11.3717 995.323 11.3717V1.23276L842.963 1.05104ZM1028.71 197.17V1.05104H1133.31C1143.64 1.05104 1201.9 8.43326 1201.9 48.8444C1201.9 82.4213 1168.57 99.1107 1138.14 99.1107H1098.18C1098.18 99.1107 1097.58 133.523 1154.25 145.022C1171.82 148.587 1185.23 153.462 1193.35 160.552C1211.4 176.327 1209.03 197.17 1209.03 197.17H1159.36C1153.01 186.112 1137.7 170.901 1126.25 160.664C1110.63 146.698 1086.85 120.159 1086.85 92.7386H1126.12C1130.75 92.3508 1144.91 92.3414 1155.5 80.214C1160.96 73.9624 1163.47 64.5915 1163.47 50.5502C1163.47 7.14232 1116.78 8.97844 1114.94 8.97844H1062.33V197.17H1028.71ZM660.233 1.05104H696.377V187.143H813.097V197.149L660.233 197.17V1.05104ZM397.577 197.17H408.796L443.073 136.808H563.191L596.919 197.041H638.907L526.437 1.05104H482.706L500.013 16.6813L397.577 197.17ZM447.553 128.919L503.555 30.3041L558.774 128.919H447.553ZM229.343 1.05104V197.17H381.701V186.812C342.703 186.812 303.702 186.812 264.701 186.812V102.128H372.337V91.2593H264.531V11.3717C303.587 11.3717 342.645 11.3717 381.701 11.3717V1.23276L229.343 1.05104ZM53.1801 5.55307C72.2626 5.55307 167.976 1.05104 167.976 99.1107C167.976 157.26 131.703 189.048 92.798 189.048H53.9643L53.1801 5.55307Z" fill="white"/>
</g>
<defs>
<clipPath id="clip0_147_3961">
<rect width="1210" height="197.157" fill="white" transform="translate(0 0.421753)"/>
</clipPath>
</defs>
</svg>
